HIERARCHY
ROOT Hips
{
	OFFSET 0.000000 0.000000 0.000000
	CHANNELS 6 Xposition Yposition Zposition Zrotation Yrotation Xrotation 
	JOINT LHipJoint
	{
		OFFSET 0.000000 0.000000 0.000000
		CHANNELS 3 Zrotation Yrotation Xrotation
		JOINT LeftUpLeg
		{
			OFFSET 1.363060 -1.794630 0.839290
			CHANNELS 3 Zrotation Yrotation Xrotation
			JOINT LeftLeg
			{
				OFFSET 2.448110 -6.726130 0.000000
				CHANNELS 3 Zrotation Yrotation Xrotation
				JOINT LeftFoot
				{
					OFFSET 2.562200 -7.039590 0.000000
					CHANNELS 3 Zrotation Yrotation Xrotation
					JOINT LeftToeBase
					{
						OFFSET 0.157640 -0.433110 2.322550
						CHANNELS 3 Zrotation Yrotation Xrotation
						End Site
						{
							OFFSET 0.000000 0.000000 0.000000
						}
					}
				}
			}
		}
	}
	JOINT RHipJoint
	{
		OFFSET 0.000000 0.000000 0.000000
		CHANNELS 3 Zrotation Yrotation Xrotation
		JOINT RightUpLeg
		{
			OFFSET -1.305520 -1.794630 0.839290
			CHANNELS 3 Zrotation Yrotation Xrotation
			JOINT RightLeg
			{
				OFFSET -2.542530 -6.985550 0.000000
				CHANNELS 3 Zrotation Yrotation Xrotation
				JOINT RightFoot
				{
					OFFSET -2.568260 -7.056230 0.000000
					CHANNELS 3 Zrotation Yrotation Xrotation
					JOINT RightToeBase
					{
						OFFSET -0.164730 -0.452590 2.363150
						CHANNELS 3 Zrotation Yrotation Xrotation
						End Site
						{
							OFFSET 0.000000 0.000000 0.000000
						}
					}
				}
			}
		}
	}
}
MOTION
Frames: 25
Frame Time: 0.008333
-0.466975 16.057225 -1.279461 -113.143836 85.810510 -94.040008 -10.189051 1.046886 2.746721 -22.320598 -8.684077 -29.132589 -2.061298 1.011653 40.812337 3.288044 9.090217 -31.332320 175.335900 -0.000000 -1.075899 10.500862 -2.228300 -0.067624 -0.451028 -1.160765 -26.631770 -1.742985 -4.267128 71.036446 -2.529526 -14.074397 -2.502260 -1.361001 -0.000000 -48.797600
-0.229061 16.157862 -1.363359 -115.399622 85.213142 -96.259787 -10.431439 1.051411 2.709327 -21.568297 -8.414535 -27.159916 -2.028216 0.831606 38.638984 3.097092 8.836356 -29.850802 175.727600 0.000000 -0.591900 10.235611 -2.109330 0.109021 0.312145 -0.063761 -27.782224 -1.662389 -4.176549 70.148877 -2.548960 -14.120831 -2.589232 -1.375100 0.000000 -48.938600
0.010860 16.264140 -1.450444 -117.569439 84.580727 -98.363603 -10.670773 1.075871 2.705211 -20.789060 -8.185649 -25.254521 -1.970511 0.664823 36.461700 2.894786 8.603764 -28.122614 -3.847600 -0.000000 -0.121900 9.969636 -1.992213 0.301079 1.065811 0.963804 -28.925828 -1.563670 -4.071646 69.021024 -2.570508 -14.164156 -2.646593 -1.400100 0.000000 -49.279900
0.252955 16.375106 -1.540011 -119.750807 83.922117 -100.442350 -10.906030 1.124117 2.724450 -19.997591 -7.972759 -23.438192 -1.891916 0.516853 34.307734 2.675196 8.352241 -26.124691 -3.376600 0.000000 -1.315200 9.705740 -1.877034 0.501829 1.791281 1.903881 -30.056563 -1.446845 -3.954725 67.641886 -2.592327 -14.191190 -2.675340 -1.435000 0.000000 -49.776400
0.497233 16.490023 -1.631417 -121.995713 83.243158 -102.546672 -11.137230 1.198730 2.757044 -19.203168 -7.750166 -21.720729 -1.796608 0.391664 32.183486 2.432711 8.041567 -23.822320 -2.850700 -0.000000 -3.256399 9.445353 -1.765323 0.704830 2.476871 2.744877 -31.159400 -1.311620 -3.827244 65.993615 -2.611766 -14.185740 -2.666715 -1.480699 0.000000 -50.365500
0.743697 16.608262 -1.724131 -124.322356 82.544327 -104.699372 -11.364499 1.301412 2.795264 -18.409119 -7.495420 -20.100524 -1.687935 0.291955 30.080596 2.164763 7.641431 -21.175076 -2.271499 -0.000000 -6.203100 9.189858 -1.660464 0.906115 3.118092 3.482013 -32.212000 -1.157441 -3.689965 64.055108 -2.625301 -14.129365 -2.604209 -1.539400 -0.000000 -50.969600
0.992337 16.729030 -1.817719 -126.722449 81.823009 -106.900196 -11.587917 1.432053 2.833484 -17.616214 -7.193557 -18.569329 -1.568620 0.219389 27.985250 1.874974 7.138200 -18.157171 -1.656900 -0.000000 -10.288300 8.940252 -1.567213 1.103764 3.716444 4.116903 -33.187643 -0.983725 -3.543110 61.806102 -2.628804 -14.004118 -2.464372 -1.614300 0.000000 -51.511000
1.243124 16.851282 -1.911729 -129.173039 81.075155 -109.135318 -11.807191 1.588574 2.868251 -16.824955 -6.840002 -17.117461 -1.440836 0.174536 25.886607 1.574257 6.537880 -14.769141 -1.039900 -0.000000 -15.491999 8.697218 -1.490914 1.298061 4.276651 4.657921 -34.060224 -0.790138 -3.386331 59.231531 -2.617982 -13.795916 -2.218052 -1.709500 -0.000000 -51.958200
1.495954 16.973572 -2.005804 -131.643290 80.297765 -111.381506 -12.021021 1.765789 2.897527 -16.039854 -6.441841 -15.737138 -1.308567 0.155933 23.791524 1.280847 5.860544 -11.083847 -0.468200 -0.000000 -21.313300 8.460790 -1.436691 1.490870 4.803415 5.118085 -34.809642 -0.576228 -3.218952 56.328480 -2.587969 -13.491356 -1.844986 -1.825900 -0.000000 -52.252400
1.750808 17.094107 -2.099450 -134.103530 79.491610 -113.613274 -12.226777 1.956723 2.920434 -15.270847 -6.014451 -14.428604 -1.176544 0.160517 21.730291 1.014866 5.137606 -7.222615 0.011700 0.000000 -27.041900 8.231225 -1.408191 1.686226 5.297788 5.515052 -35.426338 -0.341912 -3.039654 53.108004 -2.534356 -13.083450 -1.328867 -1.961900 0.000000 -52.415400
2.007645 17.210805 -2.192168 -136.530352 78.660566 -115.807149 -12.420902 2.154242 2.936754 -14.532374 -5.575375 -13.202028 -1.048641 0.184376 19.757041 0.793249 4.410353 -3.323331 0.369700 -0.000000 -32.051399 8.009621 -1.407071 1.890109 5.756730 5.868761 -35.914414 -0.086896 -2.846702 49.598704 -2.452970 -12.567633 -0.669702 -2.110800 -0.000000 -52.483700
2.266403 17.321473 -2.283480 -138.902900 77.809861 -117.939155 -12.599495 2.351929 2.945772 -13.842508 -5.136294 -12.076958 -0.926656 0.223288 17.941420 0.627115 3.731162 0.488617 0.600500 0.000000 -36.036001 7.798297 -1.432434 2.109835 6.170955 6.199171 -36.291594 0.189438 -2.638003 45.846303 -2.340305 -11.941650 0.114528 -2.259700 0.000000 -52.513900
2.527099 17.423983 -2.372905 -141.208191 76.949034 -119.991834 -12.757916 2.544552 2.946047 -13.221370 -4.701046 -11.077095 -0.810959 0.272551 16.358731 0.521427 3.162330 4.099426 0.724900 0.000000 -38.933900 7.601176 -1.480356 2.352926 6.525442 6.523641 -36.586244 0.487483 -2.411130 41.912173 -2.193670 -11.202991 0.988431 -2.391000 -0.000000 -52.580401
2.789683 17.516498 -2.460040 -143.440352 76.090886 -121.955911 -12.891190 2.727998 2.935571 -12.689848 -4.268028 -10.222566 -0.700849 0.327238 15.079306 0.475610 2.773846 7.408599 0.786900 0.000000 -40.856900 7.423276 -1.543961 2.624695 6.802562 6.852099 -36.832993 0.806828 -2.163825 37.870118 -2.011144 -10.345820 1.903568 -2.483400 0.000000 -52.774900
3.054099 17.597577 -2.544790 -145.591259 75.248377 -123.822180 -12.995270 2.899092 2.912548 -12.265557 -3.834245 -9.523562 -0.594559 0.382623 14.158903 0.485172 2.639431 10.331555 0.846500 0.000000 -41.972000 7.269472 -1.614437 2.926212 6.986740 7.183375 -37.066489 1.145724 -1.894625 33.799431 -1.791700 -9.360475 2.807992 -2.515600 -0.000000 -53.211300
3.320221 17.666260 -2.627213 -147.653471 74.435420 -125.586774 -13.068123 3.055896 2.875369 -11.957502 -3.394061 -8.980587 -0.489737 0.435182 13.637095 0.543398 2.823026 12.806737 0.968200 0.000000 -42.472301 7.143011 -1.682273 3.252888 7.074680 7.504449 -37.316973 1.501373 -1.603924 29.783535 -1.534920 -8.229306 3.641224 -2.465600 -0.000000 -53.859601
3.587782 17.722001 -2.707774 -149.614700 73.661775 -127.244929 -13.109826 3.197223 2.823910 -11.768715 -2.947019 -8.581831 -0.383637 0.482633 13.533158 0.643757 3.372216 14.797233 1.207800 -0.000000 -42.507901 7.045495 -1.739022 3.594248 7.075750 7.788527 -37.604581 1.868755 -1.294438 25.893237 -1.241950 -6.940502 4.380261 -2.322900 -0.000000 -54.886000
3.856425 17.764581 -2.787070 -151.460277 72.933515 -128.793713 -13.123527 3.322812 2.757827 -11.690128 -2.486577 -8.310922 -0.274167 0.524452 13.855189 0.780140 4.295692 16.291346 1.596100 0.000001 -42.195900 6.975924 -1.778687 3.934748 7.020450 7.999204 -37.938166 2.243278 -0.971857 22.193498 -0.914977 -5.481517 5.009168 -2.081600 0.000000 -56.266300
4.125679 17.794127 -2.865650 -153.180037 72.252894 -130.238059 -13.114053 3.432953 2.676850 -11.704543 -2.005914 -8.147234 -0.160552 0.561608 14.599573 0.947306 5.561543 17.301465 2.131900 0.000000 -41.604800 6.931804 -1.798161 4.255650 6.955767 8.096192 -38.314292 2.620224 -0.644455 18.736702 -0.558452 -3.851776 5.542446 -1.746000 -0.000000 -57.969200
4.395026 17.810862 -2.944070 -154.754030 71.614501 -131.573377 -13.089868 3.528350 2.579274 -11.781577 -1.487718 -8.075477 -0.043753 0.596657 15.761316 1.139023 7.087212 17.857052 2.777000 0.000001 -40.759900 6.907638 -1.798652 4.540171 6.941790 8.052008 -38.718075 2.995234 -0.321427 15.558459 -0.181129 -2.076633 6.022393 -1.331400 0.000000 -59.943700
4.663936 17.815104 -3.022604 -156.190459 71.014996 -132.825217 -13.054263 3.610530 2.466556 -11.902351 -0.948043 -8.054181 0.074581 0.632721 17.298659 1.350997 8.796238 18.024155 3.486801 0.000000 -39.716500 6.901240 -1.781144 4.766584 7.032180 7.832346 -39.131662 3.363845 -0.015810 12.710092 0.207769 -0.177154 6.479385 -0.848900 -0.000000 -61.949900
4.931863 17.807130 -3.101518 -157.463958 70.441014 -133.979361 -13.018581 3.680889 2.334726 -12.023482 -0.366813 -8.073603 0.190985 0.674801 19.194532 1.573640 10.557886 17.865107 4.188200 0.000000 -38.500600 6.903752 -1.753121 4.927670 7.275994 7.456634 -39.529814 3.719541 0.263163 10.207632 0.590162 1.762097 6.975043 -0.326300 0.000000 -63.927201
5.198388 17.787177 -3.180798 -158.572406 69.885045 -135.041926 -12.989054 3.741914 2.182970 -12.117145 0.246274 -8.105599 0.302512 0.727647 21.400230 1.798541 12.275992 17.467154 4.828601 0.000000 -37.199000 6.909599 -1.721450 5.017093 7.693370 6.951312 -39.892506 4.053968 0.504721 8.082194 0.948283 3.654361 7.538152 0.213900 -0.000000 -65.714700
5.463219 17.755324 -3.260293 -159.513475 69.342132 -136.011548 -12.972055 3.796027 2.009159 -12.159029 0.883958 -8.129875 0.406543 0.795838 23.865433 2.016557 13.868962 16.917768 5.370600 -0.000000 -35.915900 6.912817 -1.694106 5.036092 8.277225 6.367557 -40.205641 4.357173 0.699880 6.358880 1.264094 5.393500 8.176479 0.743900 0.000000 -67.210500
5.726244 17.711561 -3.339936 -160.283811 68.815074 -136.880292 -12.974152 3.846175 1.812595 -12.134282 1.538578 -8.133612 0.501059 0.883166 26.537989 2.219783 15.282638 16.297028 5.797500 -0.000000 -34.757400 6.907807 -1.678487 4.992827 8.993208 5.769412 -40.463476 4.619030 0.841690 5.061875 1.522694 6.869794 8.868341 1.230400 -0.000000 -68.346300
